<svg width="100" height="100" viewBox="0 0 100 100" fill="none" xmlns="http://www.w3.org/2000/svg">
  <rect width="100" height="100" rx="20" fill="#0b1b3f"/>
  <g fill="#4f7dff" stroke="none">
    <path d="M33 22.5 H 43 V 54.5 L 33 66 Z"/>
    <path d="M46 64 L 52.5 57.5 L 68 68 L 61.5 74.5 Z"/>
    <path d="M 16.4,68.6 L 16.7,69.2 L 17.3,69.9 L 17.9,70.8 L 18.7,71.8 L 19.6,72.8 L 20.5,73.8 L 21.6,74.6 L 22.7,75.2 L 23.6,75.6 L 24.7,76.1 L 25.9,76.5 L 27.2,76.7 L 28.7,76.8 L 30.3,76.6 L 31.9,76.0 L 33.7,75.2 L 35.6,73.9 L 37.5,72.4 L 39.5,70.6 L 41.5,68.7 L 43.6,66.7 L 45.6,64.7 L 47.5,62.7 L 49.4,61.0 L 50.9,59.1 L 52.2,57.2 L 53.6,55.4 L 54.9,53.7 L 56.2,51.9 L 57.5,50.0 L 58.9,48.1 L 60.4,46.1 L 62.0,43.8 L 63.9,41.1 L 65.9,38.4 L 67.8,35.6 L 69.7,32.9 L 71.4,30.4 L 72.8,28.3 L 73.5,26.5 L 71.7,27.4 L 69.8,29.0 L 67.6,31.0 L 65.2,33.2 L 62.6,35.5 L 60.1,37.8 L 57.7,40.0 L 55.6,41.9 L 53.8,43.7 L 52.1,45.4 L 50.5,47.1 L 48.9,48.7 L 47.4,50.2 L 45.9,51.8 L 44.3,53.4 L 42.6,55.0 L 41.1,57.1 L 39.4,59.4 L 37.8,61.7 L 36.1,63.9 L 34.4,66.1 L 32.9,68.0 L 31.5,69.6 L 30.3,70.8 L 29.3,71.7 L 28.4,72.2 L 27.6,72.6 L 26.9,72.8 L 26.1,72.9 L 25.2,73.0 L 24.3,72.9 L 23.3,72.8 L 22.4,72.6 L 21.6,72.2 L 20.6,71.5 L 19.7,70.8 L 18.8,70.0 L 17.9,69.3 L 17.2,68.7 L 16.6,68.4 Z"/>
    <circle cx="77" cy="21" r="4.6"/>
  </g>
</svg>
